Release Info:

General

Format                                   : MPEG-4
Format profile                           : Base Media
Codec ID                                 : isom
File size                                : 768 MiB
Duration                                 : 1h 59mn
Overall bit rate                         : 901 Kbps


Video
ID                                       : 2
Format                                   : AVC
Format/Info                              : Advanced Video Codec
Format profile                           : Baseline@L3.0
Format settings, CABAC                   : No
Format settings, ReFrames                : 1 frame
Muxing mode                              : Container profile=Baseline@4.1
Codec ID                                 : avc1
Codec ID/Info                            : Advanced Video Coding
Duration                                 : 1h 59mn
Bit rate                                 : 822 Kbps
Width                                    : 720 pixels
Height                                   : 404 pixels
Display aspect ratio                     : 16:9
Frame rate mode                          : Constant
Frame rate                               : 29.970 fps
Original frame rate                      : 29.000 fps
Color space                              : YUV
Chroma subsampling                       : 4:2:0
Bit depth                                : 8 bits
Scan type                                : Progressive
Bits/(Pixel*Frame)                       : 0.094
Stream size                              : 701 MiB (91%)

Audio
ID                                       : 1
Format                                   : AAC
Format/Info                              : Advanced Audio Codec
Format profile                           : LC
Codec ID                                 : 40
Duration                                 : 1h 59mn
Bit rate mode                            : Constant
Bit rate                                 : 72.0 Kbps
Channel(s)                               : 2 channels
Channel positions                        : Front: L R
Sampling rate                            : 48.0 KHz
Compression mode                         : Lossy
Stream size                              : 61.5 MiB (8%)

Source:
credit to original movie ripper PUNJABIWALA (Thanks)

IMDB Info:

A rib-tickling comedy about a group of spirits who, in their various idiosyncrasies, try and save their only haunt, their resting place, when some unscrupulous builders try and break it down to build a modern monstrosity.

Director: Anik Dutta
Writers: Anik Dutta (dialogue), Anik Dutta (screenplay), 
Stars: Swastika Mukherjee, Parambrata Chatterjee and Sabyasachi Chakraborty

Genres: Fantasy
 
http://www.imdb.com/title/tt2351177/

Screen Shot:
 
http://www.shotpix.com/images/37511361839431970903.png 
http://www.shotpix.com/images/69568588683068010980.png 
http://www.shotpix.com/images/22592411646967307103.png 
http://www.shotpix.com/images/09680994906212645555.png 
http://www.shotpix.com/images/12342519093122653024.png 
http://www.shotpix.com/images/24884062259643872713.png 
http://www.shotpix.com/images/57451195826571935850.png 
http://www.shotpix.com/images/43669011786305131538.png 
http://www.shotpix.com/images/20906083449190683841.png 
http://www.shotpix.com/images/17336432143491322076.png 
http://www.shotpix.com/images/92029633872045014595.png